<svg width="200" height="200" viewBox="0 0 200 200" fill="none" xmlns="http://www.w3.org/2000/svg">
<rect width="200" height="200" rx="75" fill="url(#paint0_linear_2158_5)"/>
<rect x="4" y="4" width="192" height="192" rx="71" stroke="white" stroke-opacity="0.3" stroke-width="8"/>
<path d="M60.24 64.0687C60.0079 63.533 59.9422 62.9399 60.0514 62.3664C60.1607 61.7929 60.4399 61.2655 60.8527 60.8527C61.2655 60.4399 61.7929 60.1607 62.3664 60.0514C62.9399 59.9422 63.533 60.0079 64.0687 60.24L158.169 98.4682C158.741 98.7013 159.225 99.1087 159.553 99.6326C159.88 100.156 160.035 100.77 159.994 101.387C159.952 102.003 159.718 102.591 159.324 103.067C158.93 103.543 158.396 103.882 157.798 104.038L121.782 113.33C119.747 113.853 117.889 114.912 116.402 116.396C114.914 117.88 113.852 119.736 113.324 121.77L104.038 157.798C103.882 158.396 103.543 158.93 103.067 159.324C102.591 159.718 102.003 159.952 101.387 159.994C100.77 160.035 100.156 159.88 99.6326 159.553C99.1087 159.225 98.7013 158.741 98.4682 158.169L60.24 64.0687Z" fill="white"/>
<defs>
<linearGradient id="paint0_linear_2158_5" x1="100" y1="0" x2="100" y2="200" gradientUnits="userSpaceOnUse">
<stop stop-color="#40B1FD"/>
<stop offset="1" stop-color="#237AF5"/>
</linearGradient>
</defs>
</svg>
