<?xml version="1.0" encoding="UTF-8"?>
<svg xmlns="http://www.w3.org/2000/svg" viewBox="0 0 368.72 368.72">
  <defs>
    <style>
      .cls-1 {
        fill: #fdfdfe;
      }

      .cls-2 {
        fill: #f2f7fa;
      }

      .cls-3 {
        fill: #fefefe;
      }

      .cls-4 {
        fill: #fdfefe;
      }

      .cls-5 {
        fill: #fdfdfd;
      }
    </style>
  </defs>
  <g>
    <g>
      <circle cx="184.36" cy="184.36" r="184.36"/>
      <path class="cls-5" d="M232.75,251.64c1.02.5,1.8.24,2.59-.21,6.15-3.49,11.75-7.72,16.95-12.5,5.1-4.7,9.68-9.87,13.82-15.42,1.35-1.81,2.97-3.37,4.6-4.92.27-.26.53-.54,1.07-.34-.2,1.06-.81,1.94-1.4,2.8-1.03,1.52-2.03,3.05-2.89,4.67-.19.36-.54.73-.17,1.13.37.4.77.06,1.15-.07,1.62-.55,2.9-1.51,4-2.85,2.27-2.78,4.56-5.52,5.69-9.02.35-1.1.45-2.02-.68-2.71-.58-.35-.58-.97-.55-1.56.07-1.5.74-2.8,1.33-4.13,2.13-4.76,5-9.12,7.31-13.78,1.89-3.81,3.34-7.8,4.5-11.89.3-1.06.72-1.77,2-1.77,1.41,0,2.81-.32,4.23-.3,1.13.02,1.61.53,1.45,1.63-.09.62-.2,1.23-.34,1.83-1.57,6.5-4.06,12.66-6.87,18.71-3.01,6.47-6.61,12.59-10.31,18.67-.7,1.16-1.63,2.1-2.89,2.67-.75.34-1.22.99-1.62,1.68-2.82,4.81-6.44,9-10.25,13.03-4.75,5.04-9.98,9.57-15.28,14.01-.49.41-1.37.82-1.12,1.49.26.72,1.18.3,1.81.37,3.39.39,6.78.76,10.18,1.12,7.79.84,15.52,1.98,23.14,3.81,2.38.57,4.71,1.31,7.06,1.97.24.07.57.09.56.39-.03.4-.42.33-.69.34-.67.04-1.33-.03-1.98-.2-5-1.36-10.13-1.9-15.24-2.63-2.01-.29-4-.66-6.02-.92-5.99-.77-12.01-1.15-18.02-1.71-1.32-.12-2.66-.09-3.99-.16-.7-.03-1.32.16-1.87.57-2.69,1.96-5.56,3.67-8.16,5.77-1.48,1.2-1.44,1.67.35,2.44,6.7,2.85,13.43,5.66,19.88,9.06,7.8,4.12,15.53,8.38,22.85,13.33,1.12.76,1.91.47,2.73-.37,3.4-3.45,6.35-7.27,9.26-11.14,6.67-8.85,12.26-18.34,16.55-28.55,2.52-5.99,4.29-12.23,5.95-18.52,2.78-10.52,3.23-21.29,3.99-32.03.33-4.71-.55-9.29-1.37-13.88-.33-1.84-.22-3.74-.9-5.53-.27-.72.18-1.18.74-1.55.76-.5,1.73-.96,1.55-2.05-.18-1.07-.98-1.62-2.08-1.85-1.13-.24-1.71-1.16-1.97-2.22-.87-3.61-2.07-7.11-3.22-10.63-.34-1.03-.26-2,.08-3.05,1.3-3.89,1.2-7.89.45-11.85-.26-1.4-.99-2.72-1.51-4.07-.12-.3-.42-.62-.04-.88.46-.32.66.16.87.43.36.45.71.92,1.02,1.42,3.27,5.22,5.7,10.81,7.32,16.75.37,1.37.8,2.71,1.46,3.98.8,1.54.66,3.25.91,4.88.5,3.21,1.52,6.32,1.7,9.58.03.54.21,1.15.02,1.61-1.05,2.59-.2,5.18-.09,7.77.43,10.28.7,20.56-1.36,30.75-.51,2.52-.76,5.09-1.13,7.64-.04.26-.24.63.16.74.42.12.41-.29.5-.55,1.26-3.88,2.07-7.88,3-11.85.25-1.06.27-2.14.26-3.23,0-.49.02-1.17.62-1.19.71-.02.55.69.57,1.16.16,2.97-.27,5.94-.72,8.82-.6,3.84-.58,7.69-.91,11.52-.52,5.99-1.26,11.97-2.99,17.7-1.61,5.33-2.53,10.86-4.74,16.01-4.89,11.45-11.3,21.96-19.3,31.5-1.83,2.18-3.92,4.09-6.05,5.96-1.72,1.51-3.41,3.06-5.05,4.65-.47.45-1.17,1.15-1.7.64-.58-.55.01-1.3.55-1.79.52-.47.74-.93.04-1.41-.61-.42-.54-.93-.3-1.53,1.57-3.99,2.17-8.28,3.85-12.23.21-.5.19-1.04.12-1.6-.65.01-.87.52-1.15.9-3.6,4.98-7.79,9.45-12.07,13.82-2.26,2.31-4.92,4.23-7.39,6.33-.65.55-1.17.44-1.7-.19-1.01-1.21-2.02-2.44-3.1-3.59-.73-.78-.53-1.21.29-1.74,4.98-3.2,9.62-6.87,14.08-10.76.69-.6,1.35-1.24,2.02-1.87.65-.61.56-1.13-.22-1.57-14.19-8.15-28.47-16.11-43.76-22.08-1.93-.75-3.49-.75-5.02.74-.61.6-1.39,1.1-2.18,1.43-1.15.49-1.66,1.3-1.74,2.48-.06.93-.49,1.67-1.26,2.19-.78.53-1.59.61-2.27-.1-.63-.67-1.17-.53-1.98-.28-3.01.96-5.82,2.4-8.96,3.07-2.29.49-4.46,1.6-6.63,2.55-5.36,2.35-11.03,3.75-16.62,5.38-.47.14-1,.26-1.48.19-3.25-.42-6.56-.44-9.75-1.29-.52-.14-1.49-.08-1.4-.91.09-.79.99-.57,1.57-.65,3.31-.46,6.54-1.29,9.73-2.24,5.27-1.56,10.58-2.97,15.75-4.82,2.18-.78,4.19-1.81,6.02-3.23,3.32-2.58,6.67-5.13,10.14-7.5.38-.26.84-.5.77-1.04-.09-.61-.66-.46-1.08-.61-2.99-1.11-5.58-.08-8.2,1.3-4.19,2.21-8.3,4.59-12.65,6.47-4.9,2.11-9.9,3.89-15.34,4.14-3.02.14-5.98.94-9.03,1.02-4,.1-7.99.19-11.98-.2-2.11-.2-4.22-.55-6.33.03-.23.06-.51.05-.74-.01-6.2-1.86-12.6-2.69-18.98-3.63-6-.88-11.42-3.55-16.81-6.19-.75-.37-1.48-.77-2.22-1.14-1.14-.57-2.32-.65-3.52-.24-5.82,2.02-11.55,4.28-16.98,7.22-1.41.76-1.54,1.21-.53,2.39,3.49,4.08,6.73,8.38,10.58,12.15,6.45,6.33,13.48,11.89,21.23,16.53,3.14,1.88,6.25,3.82,9.48,5.54,1.68.9,3.33,1.19,5.09.23,1.4-.77,3.18-.67,4.36-2,.46-.52,1,0,1.44.3,2.45,1.58,4.89,3.16,7.34,4.74.73.47,1.61.71,2.25,1.33.2.19.54.36.37.71-.16.34-.51.4-.86.32-.94-.21-1.87-.49-2.66-1.04-2.88-2-5.95-1.75-9.21-.9.38.74,1.05.97,1.67,1.24,9.14,3.9,18.58,6.86,28.28,8.98.65.14,1.31.3,1.91.56.83.35,1.59.35,2.39-.07.81-.42,1.6-.4,2.3.29.17.17.41.37.63.37,2.25.04,4.42.87,6.7.66,1.84-.17,3.65.25,5.48.26,7.48.05,14.87-.65,22.22-2.05,10.48-2,20.55-5.23,30.21-9.77,2.11-.99,4.17-2.08,6.15-3.32.93-.58,1.9-1.03,3.03-1.01,1.51.03,2.07.51,1.58,1.88-.51,1.43-.4,2.64.27,3.92.2.39.26.89.27,1.34.03.99-.45,1.66-1.49,1.54-1.1-.13-1.48.44-1.73,1.35-.71,2.56-1.5,5.11-2.17,7.68-.31,1.17-.98,1.91-2.07,2.3-5.76,2.07-11.58,3.95-17.47,5.59-3.08.86-6.16,1.75-9.26,2.58-3.1.83-6.28,1.2-9.45,1.64-.78.11-1.57.21-2.35.32-.28.04-.71-.03-.73.3-.02.5.46.36.76.36,3.79.04,7.58.08,11.36-.26,9.02-.79,17.43-3.48,25.29-7.96.14-.08.29-.23.43-.24.64,0,1.22-.81,1.86-.29.68.55-.19,1.02-.26,1.55-.27,2.2-1.41,3.57-3.61,4.4-7.86,2.96-15.59,6.29-23.84,8.1-13.47,2.95-27.08,3.58-40.75,2.14-11.73-1.24-23.36-3.3-34.53-7.21-9.8-3.43-19.02-8.19-28.04-13.33-5.82-3.32-11.21-7.18-16.18-11.66-.27-.25-.95-.43-.64-.9.32-.48.75.04,1.05.25,3.76,2.61,7.53,5.21,11.26,7.86,3.04,2.16,6.1,4.37,9.67,5.66.33.12.77.5.99.08.23-.44-.36-.55-.64-.74-6.45-4.36-12.91-8.7-19.36-13.06-.93-.63-1.75-1.41-2.67-2.06-2.09-1.47-3.89-1.47-6.02-.08-1.74,1.14-3.11,2.64-4.1,4.46-.72,1.32-.34,1.91,1.14,2.01,2.15.14,3.99-.61,5.74-1.74.35-.23.81-.68,1.21-.17.42.54-.19.81-.49,1.1-1.04,1.01-2.22,1.9-3.08,3.09-.97,1.34-.95,2.21.07,3.49.62.78,1.34,1.48,2.1,2.13.44.37.85.8,1.21,1.26.2.25.32.62.01.91-.29.28-.55.03-.79-.1-1.67-.92-3.41-1.74-5-2.83-1.34-.92-2.74-1.43-4.31-.55-.6.34-.93.02-1.17-.5-.54-1.17-1.13-2.33-1.33-3.62-.14-.89-.57-1.56-1.28-2.05-6.94-4.74-12.18-11.19-17.54-17.51-2.35-2.77-4.16-5.92-5.77-9.18-.53-1.08-1.05-2.17-1.75-3.16-.32-.45-.6-.92-.35-1.5.07-.16.18-.29.38-.25.61.14.81.61,1,1.15.16.46.4.94.72,1.3,3.18,3.45,5.63,7.54,9.42,10.46,1.73,1.34,2.86,1.63,4.77.64.3-.16.59-.28.94-.29,1.88-.06,2.64-1.56,3.53-2.84.35-.51-.11-.94-.5-1.27-2.46-2.09-4.46-4.6-6.49-7.08-1.06-1.29-1.67-2.65-1.25-4.37.21-.88-.09-1.74-.47-2.54-1.42-2.96-3.48-5.58-4.51-8.76-.24-.75-.88-.62-1.46-.31-1.88.99-3.85,1.79-5.56,3.09-.75.57-1.59,1.01-2.77,1.38.78-1.04,1.48-1.78,2.32-2.37,1.7-1.21,3.39-2.42,5.14-3.55.97-.62,1.23-1.25.78-2.36-2.2-5.48-4.59-10.88-6.71-16.4-3.8-9.93-6.12-20.23-7.78-30.68-1.92-12.1-1.95-24.3-.85-36.46.82-9.03,2.37-18,4.5-26.83,2.29-9.5,6.76-18.12,11.24-26.74,2.41-4.62,5.73-8.55,8.72-12.73.07-.1.14-.23.24-.29,2.05-1.21,2.05-3.14,1.97-5.2-.1-2.58-.17-5.16-.21-7.74-.17-11.22.54-22.39,2.54-33.45.44-2.45.78-4.91,1.24-7.35.61-3.21,1.22-6.42,1.98-9.6,1.19-5.01,2.68-9.94,4.67-14.71.1-.23.23-.46.26-.7.2-1.92.95-3.38,3.03-3.82.27-.06.55-.41.68-.69.55-1.22,1.27-1.07,2.17-.4,5.96,4.46,12.2,8.64,17.22,14.18,4.84,5.33,10.28,9.96,15.61,14.74,2.24,2.01,4.09,4.38,6.01,6.69.98,1.18.78,1.82-.66,2.41-.27.11-.56.16-.83.28-.7.32-.95.78-.45,1.48,3.02,4.24,5.82,8.62,8.29,13.2.5.92,1.25.65,1.96.42,3.17-1.02,6.31-2.13,9.49-3.1,6.91-2.09,13.97-3.72,21.16-4.16,7.63-.46,15.31-.49,22.95.48,10.35,1.31,20.35,3.9,29.96,7.93,1.65.69,2.91.34,4.28-.62,7.28-5.14,14.73-10.03,22.52-14.36,10.24-5.69,20.71-10.88,32.01-14.18,5.52-1.61,11.21-2.53,16.78-3.9,1.46-.36,1.9,0,1.92,1.52.02,1.26.3,2.11,1.81,2.01.47-.03.76.31.77.8.03,3.54.51,7.15-.02,10.6-.69,4.45-1.18,8.95-2.24,13.36-.66,2.75-1.38,5.48-2.11,8.21-.22.83-.65,1.53-1.22,2.15-1.32,1.47-2.64,2.91-4.43,3.89-1.93,1.05-3.76,2.3-5.66,3.42-2.45,1.45-4.98,1.6-7.68.65-5.06-1.77-9.5-4.59-13.8-7.69-2.94-2.12-5.86-4.26-8.79-6.39-.28-.21-.6-.6-.95-.26-.29.27-.2.73-.01,1.06.23.39.54.73.83,1.09,3.33,4.21,6.93,8.24,9.47,13,1.93,3.62,3.99,7.22,4.98,11.27.69,2.82.18,5.4-1.55,7.8-2.53,3.52-5,7.07-7.91,10.29-.24.27-.69.61-.43.93.37.43.75-.07,1.05-.3,2.78-2.05,5.5-4.19,8.32-6.18,3.06-2.15,6.59-2.86,10.26-3.07,1.77-.1,3.15.95,4.68,1.57.28.12.33.39.26.63-1.66,5.51-3.9,10.76-7.07,15.6-1.2,1.84-2.34,3.71-3.82,5.35-.97,1.07-2.14.92-3.12-.63-.3-.47-.6-.83-1.07-1.08-.28-.15-.51-.56-.85-.31-.39.28-.39.82-.16,1.14.77,1.08.54,2.46,1.26,3.59.59.94.38,2.11-.38,3.04-.26.32-.41.69-.16,1.02.37.49.64-.05.94-.19.34-.16.64-.4.96-.58,1.27-.72,2.23-.7,3.12.4.65.81,1.63,1.26,2.14,2.2.15.27.47.47.76.63.45.26.93.72,1.46.23.54-.5.28-1.05-.02-1.59-.65-1.16-1.27-2.34-1.94-3.49-.54-.94-.5-1.82.21-2.65,1.81-2.12,3.62-4.25,5.44-6.35.24-.28.57-.48.89-.68.36-.24.78-.35,1.18-.1.46.29.24.72.21,1.13-.25,2.82-1.87,4.72-4.18,6.1-1.16.69-1.49,1.48-.88,2.79.59,1.26.18,2.71.48,4.07.88,4.06,1.9,8.11,2.15,12.29.03.5.01,1,.07,1.5.17,1.34-.16,2.2-1.62,2.72-2.09.75-3.09,3.26-2.45,5.4.25.84.87,1.14,1.64,1.33,2,.5,2.12.79,1.56,2.78-.61,2.2-1.04,4.46-1.72,6.64-1.78,5.66-4.46,10.91-7.34,16.08-2.37,4.26-4.86,8.44-7.53,12.51-3.89,5.93-8.51,11.29-12.97,16.79-5.31,6.55-11.91,11.44-18.85,16-1.58,1.04-3.2,2.02-4.65,3.41l.03.05Z"/>
      <path class="cls-3" d="M159.68,56.29c.19.63.52.66.85.62,2.15-.26,4.41-.03,6.45-.5,3.91-.89,7.84-.28,11.74-.69,4.4-.47,8.81.3,13.23.31,5.2,0,10.11,1.37,14.95,3.08.49.17,1.43.28,1.22.95-.2.64-1.07.24-1.56.11-10.82-2.87-21.69-1.37-32.49-.13-8.76,1-17.36,3.09-25.69,6.11-.63.23-1.12.08-1.33-.52-.61-1.67-2.05-2.85-2.63-4.57-.25-.75-1.19-1.18-1.66-1.95-.61-.99-.2-1.37.65-1.59,2.05-.54,4.08-1.17,6.2-1.42,2.18-.26,4.23-1.08,6.36-1.54,5.86-1.27,11.75-2.36,17.79-2.32.33,0,.67,0,1,.04.35.04.71.19.73.56.02.39-.32.57-.68.6-3.04.19-5.9,1.45-8.99,1.42-2.16-.02-4.01,1.2-6.14,1.43h0Z"/>
      <path class="cls-3" d="M303.41,191.38c.36,2.18-3.48,5.22-5.13,5.24-.55,0-1.03-.18-1.21-.7-.33-.95-.67-2,.05-2.85.61-.72,1.1-1.35,1.01-2.38-.06-.64.53-.91,1.13-.9.55.02,1.05-.06,1.58-.26,1.8-.67,2.61-.08,2.59,1.84h-.02Z"/>
      <path class="cls-4" d="M300.36,94.69c.36.62.33,1.17.15,1.67-1.69,4.73-3.41,9.46-5.12,14.18-.11.3-.3.56-.48.88-1.73-3.62,1.32-12.96,5.46-16.74h0Z"/>
      <path class="cls-4" d="M75.22,308.55c.04-.42-.48-1.01.11-1.22.52-.18,1.07.29,1.36.7.75,1.05,1.56,2.04,2.48,2.94.4.4.21.74-.18,1.03-.43.32-.86.64-1.31.95-1.35.95-2.63,1.93-3.52,3.4-.33.56-1.13,1.54-1.86,1.01-.77-.55.34-1.16.55-1.77.72-2.12,1.51-4.21,2.26-6.32.08-.23.08-.49.12-.73h-.01Z"/>
      <path class="cls-1" d="M70.12,119.56c-.03-2.31,1.36-3.77,3.31-3.59,1.04.09,1.29.54.9,1.48-.68,1.66-2.18,2.7-3.1,4.18-.33.52-.65.13-.79-.24-.24-.62-.33-1.29-.31-1.83h-.01Z"/>
      <path class="cls-2" d="M273.42,216.17c-.49,0-.7-.2-.67-.53.05-.56.39-.91.96-.95.3-.02.67.11.57.47-.14.47-.5.83-.85,1.01h0Z"/>
      <path d="M195.28,243.88h-9.74c-.71,0-1.37-.14-1.12-1.03,1.71-6.04,1.78-12.45,4.21-18.32,4.56-11.02,11.84-19.42,23.25-23.67,4.26-1.58,8.71-2.53,13.31-2.47,2.54.03,5.08,0,7.62,0,1.09,0,2.16-.06,3.2-.44.34-.13.72-.35,1.04,0,.34.36.02.71-.1,1.03-1.63,4.29-2.99,8.65-3.53,13.23-.39,3.35-.56,6.72-1.3,10.02-2.24,10-8.43,16.5-17.95,19.89-3.94,1.4-8.1,1.79-12.28,1.78h-6.62v-.03h.01Z"/>
      <path d="M87.05,227.71c-.75-1.88-1.51-3.76-2.26-5.64l.26-.17c3.03,3.98,5.45,8.43,8.83,12.15,3.39,3.73,6.76,7.47,10.51,10.85,3.77,3.41,8.29,5.85,11.98,9.53-.64,0-1.13-.32-1.64-.58-2.54-1.31-4.97-2.77-7.38-4.33-3.28-2.11-6.23-4.55-9.16-7.07-1.8-1.55-3.4-3.31-4.64-5.36-.43-.71-.98-1.34-1.51-1.98-.2-.23-.45-.59-.83-.4-.41.22-.34.68-.22,1.01.25.68,1.1,1.37-.05,1.97-1.07.57-1.82,0-2.47-.81-.21-.25-.43-.5-.71-.82-.56,1,.04,1.65.49,2.22,1.81,2.28,3.68,4.52,5.56,6.75.83.99,1.71,1.93,2.55,2.91.18.21.5.41.37.73-.16.39-.56.29-.88.29-4.42,0-8.83.06-13.22.63-1.02.13-1.65-.44-2.09-1.41-4.4-9.6-8.03-19.45-10.17-29.82-.94-4.56-1.52-9.17-2.19-13.78-.53-3.64-.57-7.29-.96-10.93-.44-4.22-.15-8.48.23-12.72.07-.83.13-1.66.18-2.49.26-4.86,1.14-9.65,1.82-14.46.9-6.4,3.01-12.42,5.06-18.49.6-1.77.99-3.6,1.57-5.38.71-2.18,1.82-4.14,2.92-6.12.26-.46.34-1.02.52-1.53.13-.37.16-.92.75-.79.53.11,1.18.34,1.13.97-.12,1.71.4,3.33.7,4.95.52,2.8.98,5.61,1.82,8.37.29.95.31,2.3.07,3.49-.58,2.84-.69,5.77-.27,8.58.59,3.96.65,7.89.27,11.84-.34,3.48-1.44,6.84-2.17,10.25-1.11,5.15-1.76,10.32-1.54,15.61.13,3.08,0,6.16.04,9.25.11,7.2,1.6,14.1,4.5,20.69.4.92,1.51,1.17,1.81,2.15.14-.04.28-.08.42-.12h0Z"/>
      <path d="M129,245.44c-3.86.03-7.23-1.62-10.48-3.34-3.07-1.63-5.9-3.77-8.48-6.13-3.84-3.51-5.28-8.29-6.4-13.14-1.35-5.83-2.01-11.8-3.47-17.61-.62-2.47-1.56-4.82-2.24-7.27-.13-.48-.58-1.03-.06-1.51.51-.48.92.11,1.35.25,1.77.6,3.5,1.36,5.3,1.85,7.75,2.1,13.62,6.8,18.32,13.11,5.22,7.01,8.83,14.73,10.02,23.49.25,1.85.82,3.65,1.13,5.49.56,3.28-.52,4.58-3.87,4.81-.37.03-.75,0-1.12,0h0Z"/>
      <path d="M255.75,163.01c2.01.74,3.65,1.63,5.13,2.86.67.55,1.4,1.07,2.17,1.46,1.4.7,2.84.49,4-.43,1.94-1.55,4.26-2.42,6.3-3.79.3-.2.61-.22.95-.24.72-.05,1.37-.18,1.8-.9.26-.44.76-.74,1.27-.37.48.34.1.76-.1,1.1-2.09,3.66-3.11,7.81-5.27,11.43-.3.5-.31,1.04.01,1.54,1.21,1.87,2.27,3.84,3.34,5.8.32.6.84,1.1,1.31,1.61.29.31.72.59.31,1.02-.38.39-.79.34-1.33.02-2.4-1.46-4.66-3.08-6.61-5.13-1.21-1.27-1.59-1.33-2.84-.1-.84.83-1.89.52-2.75,1.11-1.54,1.07-3.28,1.86-4.96,2.73-.35.18-.76.7-1.19.16-.38-.48.1-.73.32-1.12,1.34-2.32,2.89-4.53,3.78-7.09.24-.7.01-1.3-.27-1.92-1.08-2.36-2.47-4.52-3.94-6.64-.61-.88-1.23-1.76-1.44-3.1h0Z"/>
      <path d="M297.84,281.71c.1-1.3.55-2.11.89-2.93,3.6-8.7,7.84-17.09,12.21-25.42.79-1.51,1.54-3.05,2.26-4.59.64-1.38,1.63-2.41,2.99-3.07.95-.46,1.44-.18,1.5.87.08,1.38-.09,2.75-.4,4.09-1.38,5.93-3.75,11.46-7.01,16.6-1.76,2.77-3.4,5.64-5.78,7.97-.46.45-.91.94-1.58.87-1.23-.14-1.82.58-2.34,1.5-.76,1.32-1.41,2.71-2.73,4.12h-.01Z"/>
      <path d="M55.2,192.67c-.52-.26-.49-.71-.49-1.1-.06-9.79-.07-19.59,2.22-29.18,1.84-7.72,4.92-15.01,8.36-22.15,2.18-4.53,4.21-9.13,6.13-13.79,1.27-3.08,3.36-5.82,5.32-8.57.41-.57.77-1.18,1.17-1.76.16-.23.33-.56.66-.47.34.09.3.47.34.74.13.75-.17,1.37-.56,1.99-1.4,2.26-2.81,4.53-4.16,6.82-1.09,1.84-1.75,3.88-2.54,5.86-.85,2.12-1.95,4.14-2.86,6.23-.62,1.44-1.34,2.85-2.05,4.22-1.13,2.18-1.3,4.69-2.65,6.75-.51.78-.52,1.78-.81,2.67-.66,2.02-1.5,3.99-2.04,6.05-1.39,5.41-2.92,10.78-3.89,16.3-.99,5.64-1.3,11.31-1.71,17-.06.8-.08,1.62-.45,2.4h.01Z"/>
      <path d="M105.5,256.35c.64-.03,1.2.23,1.73.58,1.22.8,2.3,1.78,3.63,2.42.84.41.47.97-.17,1.25-.83.37-1.7.67-2.57.95-4.95,1.63-9.68,3.8-14.27,6.25-.84.45-1.48.31-1.98-.34-1.4-1.81-2.73-3.68-3.88-5.65-.44-.76-.1-1.3.67-1.54,3.03-.91,6.01-1.98,9.13-2.56,2.57-.47,5.05-1.45,7.73-1.36h-.02Z"/>
      <path d="M103.57,254.55c-5.79.65-10.95,2.4-16.13,4.08-.69.22-1.31.15-1.73-.55-.97-1.6-2.04-3.15-2.68-4.92-.44-1.21-.24-1.56,1.02-1.56,5.2,0,10.41-.17,15.61.23,1.73.13,2.65,1.37,3.92,2.73h0Z"/>
      <path d="M156.69,260.29c-3.08.05-7.51-3.8-7.78-6.6-.06-.6.25-.97.8-.69,1.93.97,4,.66,6.01.73,2.61.09,5.24.1,7.84-.25.42-.06.97-.26,1.23.28.22.46-.19.76-.45,1.08-1.46,1.77-3.02,3.43-5.02,4.62-.87.52-1.78.91-2.64.83h.01Z"/>
      <path d="M226.19,255.5h.82c.41,0,.91-.13,1.02.43.09.45-.35.6-.66.79-.88.55-1.79,1.05-2.6,1.69-1.73,1.37-3.65,1.33-5.66.95-.31-.06-.59-.21-.6-.53-.02-.43.32-.68.66-.83,1.37-.6,2.75-1.16,4.12-1.76,1.04-.46,2.07-.86,2.92-.74h-.02Z"/>
    </g>
  </g>
</svg>